<svg xmlns="http://www.w3.org/2000/svg" xmlns:xlink="http://www.w3.org/1999/xlink" width="168" height="22.071" viewBox="0 0 168 22.071">
  <defs>
    <clipPath id="clip-path">
      <rect id="Retângulo_2" data-name="Retângulo 2" width="168" height="22.071" transform="translate(0 0)" fill="none"/>
    </clipPath>
  </defs>
  <g id="Albrecht_logo_tipografico" transform="translate(0 0)">
    <g id="Grupo_1" data-name="Grupo 1" transform="translate(0 0)" clip-path="url(#clip-path)">
      <path id="Caminho_5" data-name="Caminho 5" d="M150.513,21.53l3.782-9.193h-2.339l2.159-5.168h2.339L158.1,3.153h8.83l-1.651,4.016H168l-2.159,5.168h-2.716l-3.8,9.193Zm-26.032,0L133.359,0h8.9l-2.951,7.031c-.144.332-.309.678-.5,1.034s-.4.735-.655,1.143a12.908,12.908,0,0,1,3.283-1.887,9.794,9.794,0,0,1,3.411-.583,5.353,5.353,0,0,1,3.737,1.152A3.216,3.216,0,0,1,149.5,11a11.857,11.857,0,0,1-.311,1.337,13.433,13.433,0,0,1-.482,1.361l-3.213,7.833h-8.9l2.99-7.226c.1-.237.188-.479.259-.711a5.721,5.721,0,0,0,.162-.688.658.658,0,0,0-.2-.635,1.082,1.082,0,0,0-.757-.242,2.309,2.309,0,0,0-1.686.7,7.328,7.328,0,0,0-1.408,2.423l-2.621,6.377Zm-3.5,0c-.806.185-1.547.322-2.218.408a14.245,14.245,0,0,1-1.879.133,9.4,9.4,0,0,1-6.231-1.873,4.842,4.842,0,0,1-1.715-4.836,8.346,8.346,0,0,1,1.37-3.314,10.6,10.6,0,0,1,2.753-2.727,14.314,14.314,0,0,1,4.085-1.944,16.423,16.423,0,0,1,4.719-.668,14.882,14.882,0,0,1,2.538.209,13.249,13.249,0,0,1,2.308.612l-2.191,5.348a7.968,7.968,0,0,0-1.474-.641,4.644,4.644,0,0,0-1.35-.209,4.346,4.346,0,0,0-2.5.706,2.745,2.745,0,0,0-1.235,1.849,1.57,1.57,0,0,0,.527,1.574,3.069,3.069,0,0,0,2.033.593,5.835,5.835,0,0,0,1.2-.133,8.855,8.855,0,0,0,1.369-.408Zm-13.967-6.349H94.58a1.986,1.986,0,0,0,.311,1.679,1.911,1.911,0,0,0,1.562.6,3.43,3.43,0,0,0,1.4-.285,6.167,6.167,0,0,0,1.445-.991l6.465,1.081a13.329,13.329,0,0,1-4.865,3.6,15.723,15.723,0,0,1-6.3,1.209,9.762,9.762,0,0,1-6.383-1.883,4.806,4.806,0,0,1-1.78-4.826,8.291,8.291,0,0,1,1.345-3.276,10.429,10.429,0,0,1,2.693-2.7A14.86,14.86,0,0,1,94.6,7.4a15.943,15.943,0,0,1,4.661-.692,10.118,10.118,0,0,1,6.412,1.821,4.535,4.535,0,0,1,1.835,4.608c-.061.356-.132.7-.214,1.029s-.178.673-.28,1.015M95.511,12.513h4.5l.036-.209a1.136,1.136,0,0,0-.3-1.076,1.709,1.709,0,0,0-1.225-.393,3.512,3.512,0,0,0-1.74.4,3.6,3.6,0,0,0-1.272,1.276M67.07,21.53,73.048,7.169H81.13L80.16,9.127A7.833,7.833,0,0,1,82.7,7.306a7.425,7.425,0,0,1,3-.6,8.2,8.2,0,0,1,.906.057c.34.038.746.09,1.215.166L85.4,12.8c-.591-.161-1.127-.28-1.608-.365a8.057,8.057,0,0,0-1.321-.124,4.154,4.154,0,0,0-2.406.6,4.9,4.9,0,0,0-1.521,2.219l-2.626,6.4ZM59.767,0,56.859,6.961a7.494,7.494,0,0,1-.468.853c-.2.318-.442.664-.723,1.034A9.522,9.522,0,0,1,58.4,7.235a8.507,8.507,0,0,1,2.981-.526,6.017,6.017,0,0,1,4.662,1.778,5.138,5.138,0,0,1,1.144,4.6,9.252,9.252,0,0,1-1.232,3.2,12.463,12.463,0,0,1-5.9,5.021,10.368,10.368,0,0,1-3.833.735,6.519,6.519,0,0,1-2.831-.555,4.17,4.17,0,0,1-1.829-1.664l-.746,1.707H42.059L50.918,0Zm-5.3,16.319a3.361,3.361,0,0,0,2.014-.626,2.381,2.381,0,0,0,1.029-1.555,1.332,1.332,0,0,0-.346-1.261,1.9,1.9,0,0,0-1.4-.474,2.939,2.939,0,0,0-1.888.654,2.6,2.6,0,0,0-.988,1.636,1.281,1.281,0,0,0,.289,1.195,1.744,1.744,0,0,0,1.293.431M37.634,21.53H28.916L37.813,0H46.55ZM0,21.53,17.354,1.195H27.849l-.04,20.336H18.366l.281-2.707h-6.38L10.352,21.53Zm15.725-7.515h3.391l.265-2.181c.008-.119.025-.289.051-.512.1-.91.2-1.64.292-2.2.064-.37.113-.654.153-.853s.086-.389.128-.564c-.317.545-.63,1.071-.946,1.574s-.611.958-.883,1.356Z" transform="translate(0 0)" fill="#383336" fill-rule="evenodd"/>
    </g>
  </g>
</svg>
